PathFileType	4	(X/Y/Z)	Patient4_TMGait_0pt2_01_right_22.trc.trc
DataRate	CameraRate	NumFrames	NumMarkers	Units	OrigDataRate	OrigDataStartFrame	OrigNumFrames
45.454545454545	45.454545454545	5	33	mm	45.454545454545	71	       141
Frame#	Time	Sacral			L.Shoulder			Chest			R.Shoulder			Neck			R.ASIS			L.ASIS			R.Thigh.Superior			R.Thigh.Lateral			R.Thigh.Inferior			R.Patella			L.Thigh.Superior			L.Thigh.Lateral			L.Thigh.Inferior			L.Patella			L.Shank.Superior			L.Shank.Lateral			L.Shank.Inferior			R.Shank.Superior			R.Shank.Lateral			R.Shank.Inferior			R.Heel			R.Midfoot.Superior			R.Midfoot.Lateral			R.Toe			L.Heel			L.Midfoot.Lateral			L.Midfoot.Superior			L.Toe			L.Elbow			L.Wrist			R.Elbow			R.Wrist			
		X1	Y1	Z1	X2	Y2	Z2	X3	Y3	Z3	X4	Y4	Z4	X5	Y5	Z5	X6	Y6	Z6	X7	Y7	Z7	X8	Y8	Z8	X9	Y9	Z9	X10	Y10	Z10	X11	Y11	Z11	X12	Y12	Z12	X13	Y13	Z13	X14	Y14	Z14	X15	Y15	Z15	X16	Y16	Z16	X17	Y17	Z17	X18	Y18	Z18	X19	Y19	Z19	X20	Y20	Z20	X21	Y21	Z21	X22	Y22	Z22	X23	Y23	Z23	X24	Y24	Z24	X25	Y25	Z25	X26	Y26	Z26	X27	Y27	Z27	X28	Y28	Z28	X29	Y29	Z29	X30	Y30	Z30	X31	Y31	Z31	X32	Y32	Z32	X33	Y33	Z33	

71	50.980000000000	777.758397022359	1005.419214032099	593.529246024865	903.457060688570	1430.708358027194	375.680373502055	1044.315460984668	1362.100432835947	504.624212805407	1011.426458442437	1434.954702251318	694.335764700831	926.700879410787	1493.147806674654	532.534601606895	1024.511130858844	936.852699860171	655.257401780072	951.844491707205	961.175785489619	390.265565186203	1033.470730137190	728.551676491548	615.538133890253	949.606553944886	622.341269953026	684.725035780108	1002.771785678884	567.914209678605	591.176631490810	991.170685060926	479.896028026753	593.609241079408	1024.034669186588	765.666658319986	407.404969850363	951.676446273638	640.684656751662	338.280802658542	1055.390903328031	577.897498339098	387.379845924511	1069.435860681709	513.055588950083	384.825094931079	1057.990326009820	441.979353476572	369.395857975802	991.491550891474	314.997993900240	312.526719112379	1080.105164334437	213.231951387795	360.151922001021	954.573667183934	393.987632839343	600.159696898237	881.172694511905	294.479673382654	667.385567269711	900.422847214958	200.762733275744	593.254902247421	746.081581289202	44.182551141652	573.051100419523	921.572471495423	95.977810813058	593.522196223660	836.071770970437	37.129087467022	639.223185715935	1042.589430185041	41.455911845329	609.029710122537	993.469052465278	36.890189092635	388.295566852673	1068.474570606227	42.739264642473	309.376112159766	1141.374508844812	116.345500295831	334.943595362787	1273.852767510996	83.918732440301	308.793895782180	750.252351376239	1109.454385459226	300.420037559702	730.434942099373	848.896668715424	319.802730545642	1175.161784005216	1122.345465224916	788.290347588419	1406.264644155744	1100.638482245366	678.423934374329	
72	51.002000000000	778.589368795790	1004.430068949718	590.818952854046	903.053455869504	1429.836177430712	372.290646250117	1044.182558955080	1361.622699913097	501.281818115253	1011.055665759713	1434.596867404179	690.814440584834	926.064785365861	1492.466539716443	529.136813918062	1025.558724755626	936.596436506837	652.940072399641	952.906945707748	960.050084156151	387.914230889615	1033.764786855603	727.889866352479	613.708917162896	949.062503531350	622.038898604213	683.014601502518	1001.901547374654	567.127101250801	589.799359228135	989.552659740560	479.022836024681	592.395109730221	1024.755312670682	763.601464473774	405.114114115711	951.105283642706	638.587265497950	337.265648847664	1054.701033095117	575.667497884964	386.195081306811	1067.715023407662	510.810412131861	384.070035311326	1056.458132324865	439.777289316468	368.737068453849	989.456414652115	312.975841926972	312.411287461027	1077.586658573534	211.075791583084	360.346771506545	952.396653963551	393.375302920519	599.144159888662	878.284268142961	294.528860472359	666.655601427756	896.998098907100	200.488570192584	592.867914617202	741.701288080827	44.286857151695	573.049154116962	917.304962034737	96.008522257616	593.510690495477	831.660508613826	37.146377402139	639.183368903083	1038.192078836756	41.312294436035	609.099229107414	989.273079205313	36.808422859897	388.843757684806	1064.454223967191	41.290479235998	309.965691900066	1138.685059990854	113.254458134230	335.796513465722	1270.596104951895	78.169954261015	309.776330886313	752.347978924156	1107.789920994979	296.905576868750	734.586673935846	846.816076446394	316.671418775205	1180.315666579254	1124.855667512216	782.671740888946	1410.218600000446	1110.633482834382	669.454406948945	
73	51.024000000000	779.547554991112	1003.451958739159	587.842104942452	902.653678122621	1428.892820467585	368.632267226926	1044.081442091435	1361.203140680587	497.708186989244	1010.680274521611	1434.370941906791	687.040431147189	925.413484347913	1491.816151826204	525.431753490348	1026.711964910218	936.296955746090	650.387273625570	954.144037282677	959.081598978837	385.337789343664	1034.171370175123	727.178425305886	611.558759778794	948.707826605111	621.672232256880	681.001689685025	1001.180538692687	566.299687141864	588.075369275658	988.102413152430	478.095229637861	590.847132054573	1025.887503899183	761.882397110584	402.689956241507	951.327217340570	636.822996789728	335.870849502532	1054.721132897212	573.744546912301	384.811333581816	1066.881679421693	508.825923158255	383.038174898868	1055.601140164834	437.766570814071	367.853450199353	987.900697565831	311.251343234439	311.902468210526	1075.239135629853	208.991619179278	360.301635421415	950.328842044427	392.710778685174	597.878537256486	875.502575713241	294.582523882575	665.737391736643	893.600561858774	200.188274576005	592.343739577214	737.321159632411	44.397396884210	573.028915910163	913.028460031470	96.044730780789	593.464349558112	827.250473473040	37.173668592878	639.131306325077	1033.788598400709	41.190259475587	609.161003472370	984.796298450918	36.871868145286	389.141755841269	1060.172776457418	39.869132043604	310.309772028542	1135.839549468513	110.133937282582	336.393194323153	1267.154372202798	72.234509178447	310.557003332705	755.272336587696	1105.554864400835	293.030940225071	739.764215870745	844.213410813158	312.793217711007	1184.988975867805	1127.416028205720	777.077371560957	1413.530626380511	1119.761664801222	660.835175461406	
74	51.046000000000	780.614559565846	1002.562841428176	584.600387761070	902.279063408745	1427.960931150627	364.761482477194	1044.036693799232	1360.880803512990	493.925568946146	1010.368061049754	1434.291908997631	683.053550533166	924.799782962578	1491.246342866158	521.477219595580	1027.938513382680	935.980584696822	647.570047132169	955.511476794780	958.338972270970	382.505506375591	1034.586703666228	726.433522208152	609.089457544729	948.420241757861	621.290650102410	678.709756270419	1000.478111748528	565.458221930592	586.035317645583	986.687730094326	477.165951765820	589.005996782307	1027.406086741852	760.619953511269	400.136168461766	952.336951278906	635.471105563377	334.087911410136	1055.457784030577	572.222416527344	383.209843213557	1066.931747947625	507.178614976442	381.750344584779	1055.437269854513	436.022297361505	366.766037316121	986.905515682227	309.890587408604	310.997025793332	1073.141824103582	207.087920500759	360.054871982495	948.269922313595	392.042648267850	596.394167777611	872.749748576696	294.674046180655	664.654976521599	890.185823834183	199.895341095321	591.699717406839	732.945464353215	44.535434330792	572.987128384274	908.743029191918	96.086230808544	593.384601062317	822.845806006752	37.223199569152	639.065714097109	1029.381159398509	41.082764428769	609.214534483011	980.254073217593	37.051198504572	389.229893858515	1055.814171775247	38.580225473503	310.431976059231	1132.899074159717	107.211257309521	336.741567581954	1263.624043473161	66.578243271684	311.105346072474	758.769420020572	1102.986342644495	288.845057968998	745.706378181986	841.341120435102	308.212850943645	1189.227830694913	1130.013045319651	771.554052265492	1416.325274016364	1128.062216282660	652.585068693326	
75	51.068000000000	781.761171180089	1001.827806526367	581.088547177490	901.962283782171	1427.118298793169	360.733647770866	1044.072991310542	1360.683345464485	489.965660889442	1010.172100836388	1434.356685210204	678.901551271826	924.275191562823	1490.796870690873	517.337335933554	1029.198651216678	935.674558190779	644.469093937389	956.971786803889	957.866156329032	379.392213768161	1034.919733238429	725.677392747956	606.320878756167	948.089793995966	620.944736954765	676.172354507086	999.688347440690	564.632826005625	583.725829754934	985.205595435418	476.286744429502	586.926172137438	1029.262167223290	759.870933517667	397.464234425827	954.072319737809	634.564590052025	331.939846085410	1056.855402093064	571.142170678648	381.404876176049	1067.789293510340	505.895297935844	380.257668634790	1055.910268291439	434.575527127540	365.518934962633	986.460445690588	308.920136491580	309.738350366055	1071.288706384991	205.432415061941	359.671759216256	946.142465258301	391.419204317724	594.730391610817	869.963067405823	294.838577957847	663.437474744451	886.723479457673	199.644730750063	590.958637638004	728.580855290699	44.730437843105	572.922516179417	904.453570889954	96.134819954672	593.274933563713	818.452212555502	37.311470464089	638.985826370874	1024.973407371311	40.979059319414	609.260073501792	975.766579249962	37.303272648571	389.163423278618	1051.476082333161	37.501752989627	310.376965483568	1129.857107660484	104.662469022500	336.884969369129	1260.033588556897	61.578606780590	311.426630041146	762.603454340462	1100.321892191319	284.387692240783	752.171366573675	838.441517073392	302.990174460047	1193.080958999771	1132.613732197181	766.128322761551	1418.722804235966	1135.565327859483	644.720854809930	
